<svg width="33" height="33" viewBox="0 0 33 33" fill="none" xmlns="http://www.w3.org/2000/svg">
<rect width="32.2546" height="32.2546" rx="16.1273" fill="white"/>
<g clip-path="url(#clip0_23_1207)">
<path fill-rule="evenodd" clip-rule="evenodd" d="M12.826 8.16816C13.6799 8.12885 13.9521 8.12012 16.1273 8.12012C18.3025 8.12012 18.5748 8.12958 19.4279 8.16816C20.2811 8.20675 20.8635 8.34288 21.3731 8.54016C21.9067 8.7418 22.3908 9.05701 22.7912 9.46468C23.1988 9.86433 23.5133 10.3477 23.7142 10.882C23.9122 11.3916 24.0476 11.974 24.0869 12.8257C24.1262 13.6811 24.135 13.9533 24.135 16.1278C24.135 18.303 24.1255 18.5752 24.0869 19.4291C24.0484 20.2808 23.9122 20.8632 23.7142 21.3728C23.5133 21.9072 23.1983 22.3914 22.7912 22.7916C22.3908 23.1993 21.9067 23.5138 21.3731 23.7147C20.8635 23.9127 20.2811 24.0481 19.4294 24.0874C18.5748 24.1267 18.3025 24.1354 16.1273 24.1354C13.9521 24.1354 13.6799 24.126 12.826 24.0874C11.9743 24.0488 11.3919 23.9127 10.8823 23.7147C10.3479 23.5137 9.86374 23.1987 9.46349 22.7916C9.0561 22.3917 8.74085 21.9078 8.5397 21.3735C8.34242 20.8639 8.20702 20.2816 8.16771 19.4298C8.1284 18.5745 8.11966 18.3022 8.11966 16.1278C8.11966 13.9526 8.12912 13.6803 8.16771 12.8272C8.20629 11.974 8.34242 11.3916 8.5397 10.882C8.74114 10.3478 9.05664 9.86383 9.46422 9.46395C9.8639 9.05665 10.3476 8.7414 10.8816 8.54016C11.3912 8.34288 11.9735 8.20747 12.8253 8.16816H12.826ZM19.3631 9.60954C18.5187 9.57096 18.2654 9.56295 16.1273 9.56295C13.9893 9.56295 13.7359 9.57096 12.8915 9.60954C12.1104 9.64521 11.6867 9.77552 11.4043 9.88544C11.0308 10.031 10.7636 10.2036 10.4834 10.4838C10.2177 10.7423 10.0132 11.057 9.88499 11.4047C9.77506 11.6872 9.64476 12.1108 9.60908 12.892C9.5705 13.7364 9.56249 13.9897 9.56249 16.1278C9.56249 18.2658 9.5705 18.5192 9.60908 19.3636C9.64476 20.1447 9.77506 20.5684 9.88499 20.8508C10.0131 21.1981 10.2177 21.5133 10.4834 21.7717C10.7418 22.0374 11.057 22.242 11.4043 22.3701C11.6867 22.48 12.1104 22.6103 12.8915 22.646C13.7359 22.6846 13.9885 22.6926 16.1273 22.6926C18.2661 22.6926 18.5187 22.6846 19.3631 22.646C20.1443 22.6103 20.5679 22.48 20.8504 22.3701C21.2238 22.2245 21.491 22.052 21.7713 21.7717C22.037 21.5133 22.2415 21.1981 22.3697 20.8508C22.4796 20.5684 22.6099 20.1447 22.6456 19.3636C22.6841 18.5192 22.6921 18.2658 22.6921 16.1278C22.6921 13.9897 22.6841 13.7364 22.6456 12.892C22.6099 12.1108 22.4796 11.6872 22.3697 11.4047C22.2241 11.0313 22.0515 10.7641 21.7713 10.4838C21.5128 10.2182 21.1981 10.0137 20.8504 9.88544C20.5679 9.77552 20.1443 9.64521 19.3631 9.60954ZM15.1045 18.5963C15.6757 18.8341 16.3118 18.8662 16.904 18.6871C17.4963 18.508 18.008 18.1289 18.3517 17.6145C18.6955 17.1 18.85 16.4822 18.7888 15.8665C18.7277 15.2508 18.4546 14.6755 18.0164 14.2387C17.737 13.9595 17.3992 13.7457 17.0273 13.6128C16.6554 13.4798 16.2587 13.4309 15.8656 13.4697C15.4726 13.5085 15.093 13.6339 14.7542 13.837C14.4155 14.04 14.1259 14.3157 13.9065 14.6441C13.6871 14.9725 13.5432 15.3454 13.4852 15.7361C13.4272 16.1268 13.4565 16.5255 13.5711 16.9034C13.6857 17.2814 13.8826 17.6293 14.1478 17.922C14.4129 18.2147 14.7397 18.445 15.1045 18.5963ZM13.2169 13.2174C13.5991 12.8352 14.0528 12.532 14.5522 12.3251C15.0516 12.1183 15.5868 12.0118 16.1273 12.0118C16.6678 12.0118 17.2031 12.1183 17.7024 12.3251C18.2018 12.532 18.6555 12.8352 19.0377 13.2174C19.4199 13.5996 19.7231 14.0533 19.93 14.5527C20.1368 15.052 20.2433 15.5873 20.2433 16.1278C20.2433 16.6683 20.1368 17.2035 19.93 17.7029C19.7231 18.2023 19.4199 18.656 19.0377 19.0382C18.2659 19.8101 17.2189 20.2437 16.1273 20.2437C15.0357 20.2437 13.9888 19.8101 13.2169 19.0382C12.445 18.2663 12.0114 17.2194 12.0114 16.1278C12.0114 15.0362 12.445 13.9893 13.2169 13.2174ZM21.1561 12.6248C21.2508 12.5354 21.3267 12.428 21.3791 12.3088C21.4316 12.1897 21.4596 12.0612 21.4615 11.931C21.4634 11.8008 21.4391 11.6716 21.3902 11.5509C21.3412 11.4302 21.2686 11.3206 21.1765 11.2286C21.0844 11.1365 20.9748 11.0638 20.8542 11.0149C20.7335 10.966 20.6043 10.9417 20.4741 10.9436C20.3439 10.9455 20.2154 10.9735 20.0962 11.0259C19.9771 11.0784 19.8696 11.1542 19.7803 11.2489C19.6065 11.4331 19.5114 11.6778 19.5151 11.931C19.5188 12.1842 19.621 12.426 19.8 12.605C19.9791 12.7841 20.2209 12.8863 20.4741 12.89C20.7273 12.8937 20.9719 12.7986 21.1561 12.6248Z" fill="#3D7877"/>
</g>
<defs>
<clipPath id="clip0_23_1207">
<rect width="17.4713" height="17.4713" fill="white" transform="translate(7.39166 7.39209)"/>
</clipPath>
</defs>
</svg>
