<svg width="33" height="33" viewBox="0 0 33 33" fill="none" xmlns="http://www.w3.org/2000/svg">
<rect x="0.745361" width="32.2546" height="32.2546" rx="16.1273" fill="white"/>
<path d="M14.1367 22.3996H14.074C12.8105 22.3886 11.5653 22.0967 10.4285 21.5451C10.2194 21.4469 10.0473 21.2843 9.93723 21.0812C9.8272 20.878 9.78508 20.645 9.81705 20.4162C9.85181 20.1858 9.95847 19.9723 10.1218 19.8062C10.2851 19.6401 10.4967 19.5298 10.7264 19.4911C11.4309 19.3971 12.1087 19.1596 12.7177 18.7934C11.6603 17.9666 10.8462 16.8692 10.3618 15.6174C9.87732 14.3656 9.74057 13.006 9.966 11.6828C9.99657 11.4732 10.0867 11.2768 10.2257 11.117C10.3647 10.9571 10.5467 10.8406 10.75 10.7812C10.9478 10.7191 11.1595 10.7164 11.3588 10.7736C11.5581 10.8307 11.7362 10.9452 11.871 11.1027C12.3289 11.703 12.9042 12.2038 13.562 12.5744C14.2197 12.9451 14.9461 13.1779 15.6968 13.2586C15.7327 12.3349 16.1296 11.4623 16.8022 10.8283C17.138 10.5067 17.5345 10.2551 17.9686 10.0883C18.4026 9.92145 18.8655 9.84267 19.3303 9.85654C19.7951 9.8704 20.2525 9.97663 20.6758 10.169C21.0992 10.3614 21.48 10.6362 21.7961 10.9772C21.8784 11.05 21.9807 11.0964 22.0898 11.1104C22.1988 11.1244 22.3095 11.1053 22.4076 11.0556C22.5945 10.9675 22.8026 10.9343 23.0077 10.9599C23.2128 10.9856 23.4063 11.069 23.5657 11.2005C23.7252 11.332 23.8439 11.5061 23.9082 11.7026C23.9724 11.899 23.9794 12.1097 23.9285 12.31C23.7476 13.0548 23.405 13.7507 22.925 14.3483C22.8192 16.5785 21.8359 18.6764 20.1897 20.1846C18.5434 21.6928 16.3676 22.489 14.1367 22.3996ZM14.1367 20.8317H14.1994C15.1109 20.863 16.0196 20.7131 16.8727 20.3907C17.7258 20.0682 18.5065 19.5796 19.1693 18.9532C19.8322 18.3268 20.3641 17.575 20.7343 16.7415C21.1045 15.9079 21.3055 15.0092 21.3257 14.0974C21.3386 13.8475 21.4417 13.6108 21.6158 13.431C21.807 13.189 21.97 12.926 22.1018 12.6471C21.8194 12.6476 21.54 12.5885 21.282 12.4737C21.024 12.3589 20.7931 12.1909 20.6044 11.9807C20.423 11.8008 20.2075 11.6589 19.9706 11.5634C19.7337 11.4678 19.4801 11.4204 19.2247 11.4241C18.9666 11.4174 18.7099 11.4618 18.4691 11.5546C18.2282 11.6474 18.0081 11.7869 17.8214 11.965C17.5694 12.2041 17.3846 12.5052 17.2855 12.8382C17.1865 13.1711 17.1766 13.5242 17.2569 13.8622L17.4607 14.7559L16.5435 14.8187C15.6036 14.8953 14.6583 14.7667 13.773 14.4419C12.8877 14.117 12.0836 13.6035 11.4163 12.9371C11.3877 13.9691 11.6459 14.9889 12.1621 15.8829C12.6784 16.777 13.4324 17.5104 14.3405 18.0016L15.0853 18.4249L14.5914 19.1305C14.0573 19.831 13.3254 20.3553 12.4904 20.6357C13.0261 20.77 13.5766 20.8358 14.1289 20.8317H14.1367Z" fill="#3D7877"/>
</svg>
